<svg version="1.1" id="Layer_1" xmlns="http://www.w3.org/2000/svg" xmlns:xlink="http://www.w3.org/1999/xlink" x="0px" y="0px"
	 width="100%" viewBox="0 0 167 167" enable-background="new 0 0 167 167" xml:space="preserve">
<path fill="#9AD422" opacity="1.000000" stroke="none" 
	d="
M93.000000,168.000000 
	C87.311958,168.000000 81.623917,168.000000 75.687088,167.606125 
	C72.264130,166.779495 69.013794,166.646713 65.928673,165.863281 
	C50.660450,161.986053 36.948532,155.119629 25.562765,144.045837 
	C13.267843,132.087769 5.975786,117.500053 2.910405,100.690788 
	C2.790440,100.032944 1.659743,99.559410 1.000000,99.000000 
	C1.000000,90.645767 1.000000,82.291534 1.418909,73.420395 
	C2.223824,71.621887 2.701458,70.359741 2.978714,69.055023 
	C3.821084,65.090973 3.804230,60.722660 5.543303,57.216827 
	C9.201630,49.841923 13.537741,42.769169 18.011045,35.840588 
	C24.698423,25.482689 34.446701,18.026527 44.898193,12.284909 
	C55.831436,6.278636 68.079597,3.013918 80.879639,2.909867 
	C81.924866,2.901371 82.960114,1.665537 84.000000,0.999999 
	C84.444443,1.000000 84.888893,1.000000 85.442398,1.387723 
	C87.062813,2.179816 88.551895,2.761478 90.089767,2.954555 
	C94.319077,3.485538 98.934937,2.940398 102.738678,4.465291 
	C112.359741,8.322302 122.335327,12.014962 130.850891,17.735456 
	C142.688446,25.687569 151.551636,36.474297 157.876648,49.891926 
	C163.570831,61.971294 165.945892,74.072777 165.668060,87.390198 
	C165.013794,92.880142 164.523895,98.031166 164.014832,103.477264 
	C163.940720,104.161766 163.885788,104.551186 163.672943,105.129234 
	C163.320724,105.583771 163.156754,105.867218 163.002380,106.375801 
	C162.981674,106.583382 162.837830,106.975037 162.683624,107.268494 
	C162.360367,108.422836 162.191315,109.283730 162.013184,110.534668 
	C159.358521,116.757622 157.237747,122.906349 153.957458,128.357315 
	C147.260757,139.485443 138.241165,148.385651 126.938019,155.111710 
	C117.178009,160.919510 107.077332,165.187790 95.661507,166.079483 
	C94.730011,166.152252 93.885132,167.333725 93.000000,168.000000 
M129.520721,58.026947 
	C123.230530,47.660088 114.238258,40.442368 103.163139,35.221363 
	C102.186806,38.733051 100.875557,41.950470 100.456360,45.280197 
	C99.668976,51.534351 100.215218,58.067856 98.640717,64.074677 
	C97.472549,68.531281 98.629791,71.429359 101.139488,74.290039 
	C106.932449,80.893150 106.322296,93.845993 100.229935,100.026749 
	C93.420631,106.934837 85.470276,107.834763 76.547539,106.016357 
	C64.889717,103.640556 57.845490,86.484451 64.563721,76.597359 
	C66.719543,73.424660 69.992462,70.347496 70.507317,66.891846 
	C71.145790,62.606468 69.654861,57.929436 68.711304,53.500938 
	C67.433601,47.504189 65.802177,41.582806 64.248047,35.329529 
	C45.719608,44.594917 32.680805,57.864754 30.652304,80.219658 
	C29.902069,88.487564 30.464741,96.369217 32.719704,104.022659 
	C35.346790,112.939102 41.323689,119.878326 48.367840,125.957153 
	C64.213196,139.631058 82.409576,143.766602 101.709045,136.394043 
	C121.987625,128.647446 135.075745,114.105591 137.151306,91.147552 
	C138.219086,79.336472 135.876572,68.699364 129.520721,58.026947 
z"/>
<path fill="#000000" opacity="1.000000" stroke="none" 
	d="
M165.832413,87.051277 
	C165.945892,74.072777 163.570831,61.971294 157.876648,49.891926 
	C151.551636,36.474297 142.688446,25.687569 130.850891,17.735456 
	C122.335327,12.014962 112.359741,8.322302 102.738678,4.465291 
	C98.934937,2.940398 94.319077,3.485538 90.089767,2.954555 
	C88.551895,2.761478 87.062813,2.179816 85.775734,1.387723 
	C113.296379,1.000000 140.592758,1.000000 167.944565,1.000000 
	C167.944565,56.554401 167.944565,112.108871 167.944565,168.000000 
	C143.313461,168.000000 118.625389,168.000000 93.468658,168.000000 
	C93.885132,167.333725 94.730011,166.152252 95.661507,166.079483 
	C107.077332,165.187790 117.178009,160.919510 126.938019,155.111710 
	C138.241165,148.385651 147.260757,139.485443 153.957458,128.357315 
	C157.237747,122.906349 159.358521,116.757622 162.328140,110.357513 
	C162.714066,108.851891 162.775940,107.913467 162.837830,106.975037 
	C162.837830,106.975037 162.981674,106.583382 163.265625,106.263329 
	C163.643326,105.609047 163.737091,105.274826 163.830841,104.940605 
	C163.885788,104.551186 163.940720,104.161766 164.375244,103.254272 
	C165.113998,97.507889 165.473206,92.279587 165.832413,87.051277 
z"/>
<path fill="#000000" opacity="1.000000" stroke="none" 
	d="
M83.531342,0.999999 
	C82.960114,1.665537 81.924866,2.901371 80.879639,2.909867 
	C68.079597,3.013918 55.831436,6.278636 44.898193,12.284909 
	C34.446701,18.026527 24.698423,25.482689 18.011045,35.840588 
	C13.537741,42.769169 9.201630,49.841923 5.543303,57.216827 
	C3.804230,60.722660 3.821084,65.090973 2.978714,69.055023 
	C2.701458,70.359741 2.223824,71.621887 1.418909,72.951752 
	C1.000000,49.067924 1.000000,25.135847 1.000000,1.000000 
	C28.353891,1.000000 55.708286,1.000000 83.531342,0.999999 
z"/>
<path fill="#000000" opacity="1.000000" stroke="none" 
	d="
M1.000000,99.468658 
	C1.659743,99.559410 2.790440,100.032944 2.910405,100.690788 
	C5.975786,117.500053 13.267843,132.087769 25.562765,144.045837 
	C36.948532,155.119629 50.660450,161.986053 65.928673,165.863281 
	C69.013794,166.646713 72.264130,166.779495 75.219147,167.606125 
	C50.409031,168.000000 25.818064,168.000000 1.000000,168.000000 
	C1.000000,145.312943 1.000000,122.625130 1.000000,99.468658 
z"/>
<path fill="#000000" opacity="1.000000" stroke="none" 
	d="
M129.724121,58.341171 
	C135.876572,68.699364 138.219086,79.336472 137.151306,91.147552 
	C135.075745,114.105591 121.987625,128.647446 101.709045,136.394043 
	C82.409576,143.766602 64.213196,139.631058 48.367840,125.957153 
	C41.323689,119.878326 35.346790,112.939102 32.719704,104.022659 
	C30.464741,96.369217 29.902069,88.487564 30.652304,80.219658 
	C32.680805,57.864754 45.719608,44.594917 64.248047,35.329529 
	C65.802177,41.582806 67.433601,47.504189 68.711304,53.500938 
	C69.654861,57.929436 71.145790,62.606468 70.507317,66.891846 
	C69.992462,70.347496 66.719543,73.424660 64.563721,76.597359 
	C57.845490,86.484451 64.889717,103.640556 76.547539,106.016357 
	C85.470276,107.834763 93.420631,106.934837 100.229935,100.026749 
	C106.322296,93.845993 106.932449,80.893150 101.139488,74.290039 
	C98.629791,71.429359 97.472549,68.531281 98.640717,64.074677 
	C100.215218,58.067856 99.668976,51.534351 100.456360,45.280197 
	C100.875557,41.950470 102.186806,38.733051 103.163139,35.221363 
	C114.238258,40.442368 123.230530,47.660088 129.724121,58.341171 
z"/>
<path fill="#9DCD3A" opacity="1.000000" stroke="none" 
	d="
M165.668060,87.390198 
	C165.473206,92.279587 165.113998,97.507889 164.394409,102.959190 
	C164.523895,98.031166 165.013794,92.880142 165.668060,87.390198 
z"/>
<path fill="#9DCD3A" opacity="1.000000" stroke="none" 
	d="
M162.683624,107.268494 
	C162.775940,107.913467 162.714066,108.851891 162.337219,109.967476 
	C162.191315,109.283730 162.360367,108.422836 162.683624,107.268494 
z"/>
<path fill="#9DCD3A" opacity="1.000000" stroke="none" 
	d="
M163.672943,105.129234 
	C163.737091,105.274826 163.643326,105.609047 163.286331,106.055748 
	C163.156754,105.867218 163.320724,105.583771 163.672943,105.129234 
z"/>
</svg>